<svg width="640" height="640" viewBox="0 0 640 640" fill="none" xmlns="http://www.w3.org/2000/svg">
<path d="M340.35 437.36C334.6 437.36 329.09 434.88 325.28 430.51L217.64 307.15C210.37 298.83 211.23 286.19 219.55 278.93C227.89 271.66 240.52 272.54 247.77 280.85L337.98 384.22L483.21 159.77C489.22 150.5 501.59 147.84 510.87 153.84C520.14 159.84 522.79 172.22 516.79 181.5L357.14 428.23C353.73 433.5 348.05 436.87 341.78 437.32C341.3 437.35 340.83 437.36 340.35 437.36Z" fill="#FD499A"/>
<path d="M520.9 230.4C533.2 257.7 540 288.1 540 320C540 441.5 441.5 540 320 540C198.5 540 100 441.5 100 320C100 198.5 198.5 100 320 100C371.3 100 418.4 117.5 455.8 146.9L434 180.7C403 155.3 363.3 140 320 140C220.6 140 140 220.6 140 320C140 419.4 220.6 500 320 500C419.4 500 500 419.4 500 320C500 303.6 497.8 287.7 493.6 272.6L520.9 230.4Z" fill="#FD499A"/>
</svg>
