<svg width="35" height="35" viewBox="0 0 35 35" fill="none" xmlns="http://www.w3.org/2000/svg">
<path d="M17.5 0C17.3414 0 17.1834 0.0525461 17.0486 0.159186L0.278008 13.8328C-0.0355287 14.0918 -0.093804 14.5703 0.154108 14.9054C0.402021 15.233 0.860078 15.2938 1.18091 15.0349L2.18776 14.2136V34.2383C2.18776 34.6572 2.51588 35 2.91692 35H13.1251V21.2892H21.8749V35H32.0831C32.4841 35 32.8122 34.6572 32.8122 34.2383V14.2136L33.8191 15.0349C33.9576 15.1415 34.1101 15.1955 34.2705 15.1955C34.4893 15.1955 34.7001 15.0959 34.8459 14.9054C35.0938 14.5703 35.0355 14.0918 34.722 13.8328L17.9514 0.159186C17.8166 0.0525461 17.6586 0 17.5 0ZM24.7915 3.00816V3.80855L29.1665 7.37312V3.00816H24.7915Z" fill="white"/>
</svg>
